# Blender v2.78 (sub 0) OBJ File: 'fairTest.blend'
# www.blender.org
o Base_Cube.003
v 20.000002 19.999998 47.500008
v 20.000002 -19.999998 47.500008
v -20.000002 19.999998 47.500008
v -20.000002 -19.999998 47.500008
v 74.999992 100.000000 -45.000000
v 74.999992 100.000000 -30.000000
v 75.000008 -100.000000 -45.000000
v 75.000008 -100.000000 -30.000000
v -75.000008 100.000000 -45.000000
v -75.000008 100.000000 -30.000000
v -74.999992 -100.000000 -45.000000
v -74.999992 -100.000000 -30.000000
v 20.000002 19.999998 -30.000000
v -20.000002 19.999998 -30.000000
v 20.000002 -19.999998 -30.000000
v -20.000002 -19.999998 -30.000000
vn 0.0000 0.0000 1.0000
vn 1.0000 0.0000 0.0000
vn 0.0000 -1.0000 0.0000
vn -1.0000 -0.0000 0.0000
vn 0.0000 1.0000 0.0000
vn 0.0000 0.0000 -1.0000
usemtl None
s off
f 2//1 3//1 4//1
f 6//2 7//2 5//2
f 8//3 11//3 7//3
f 12//4 9//4 11//4
f 10//5 5//5 9//5
f 11//6 5//6 7//6
f 14//1 6//1 10//1
f 16//4 3//4 14//4
f 15//3 4//3 16//3
f 15//1 12//1 8//1
f 13//2 2//2 15//2
f 14//5 1//5 13//5
f 2//1 1//1 3//1
f 6//2 8//2 7//2
f 8//3 12//3 11//3
f 12//4 10//4 9//4
f 10//5 6//5 5//5
f 11//6 9//6 5//6
f 10//1 12//1 16//1
f 14//1 13//1 6//1
f 10//1 16//1 14//1
f 16//4 4//4 3//4
f 15//3 2//3 4//3
f 8//1 6//1 13//1
f 15//1 16//1 12//1
f 8//1 13//1 15//1
f 13//2 1//2 2//2
f 14//5 3//5 1//5
