# Blender v2.78 (sub 0) OBJ File: ''
# www.blender.org
o Cube.003_Cube.000
v 382.054382 250.000046 138.097595
v 382.054504 -749.999939 128.097595
v 382.054504 -749.999939 138.097595
v 382.054382 250.000046 128.097595
v 682.054504 -749.999939 128.097595
v 682.054382 250.000046 128.097595
v 682.054504 -749.999939 138.097595
v 682.054382 250.000046 138.097595
vn -1.0000 -0.0000 0.0000
vn 0.0000 0.0000 -1.0000
vn 1.0000 0.0000 0.0000
vn 0.0000 0.0000 1.0000
vn 0.0000 -1.0000 0.0000
vn 0.0000 1.0000 0.0000
s 1
f 1//1 2//1 3//1
f 4//2 5//2 2//2
f 6//3 7//3 5//3
f 8//4 3//4 7//4
f 5//5 3//5 2//5
f 4//6 8//6 6//6
f 1//1 4//1 2//1
f 4//2 6//2 5//2
f 6//3 8//3 7//3
f 8//4 1//4 3//4
f 5//5 7//5 3//5
f 4//6 1//6 8//6
o Cube.001_Cube.001
v 382.054382 250.000046 595.042786
v 382.054504 -749.999939 585.042786
v 382.054504 -749.999939 595.042786
v 382.054382 250.000046 585.042786
v 682.054504 -749.999939 585.042786
v 682.054382 250.000046 585.042786
v 682.054504 -749.999939 595.042786
v 682.054382 250.000046 595.042786
vn -1.0000 -0.0000 0.0000
vn 0.0000 0.0000 -1.0000
vn 1.0000 0.0000 0.0000
vn 0.0000 0.0000 1.0000
vn 0.0000 -1.0000 0.0000
vn 0.0000 1.0000 0.0000
s 1
f 9//7 10//7 11//7
f 12//8 13//8 10//8
f 14//9 15//9 13//9
f 16//10 11//10 15//10
f 13//11 11//11 10//11
f 12//12 16//12 14//12
f 9//7 12//7 10//7
f 12//8 14//8 13//8
f 14//9 16//9 15//9
f 16//10 9//10 11//10
f 13//11 15//11 11//11
f 12//12 9//12 16//12
o Cube_Cube.002
v 684.210083 250.000061 1000.000000
v 684.210205 -749.999939 0.000000
v 684.210205 -749.999939 1000.000000
v 684.210083 250.000061 0.000000
v 694.210205 -749.999939 0.000000
v 694.210083 250.000061 0.000000
v 694.210205 -749.999939 1000.000000
v 694.210083 250.000061 1000.000000
vn -1.0000 -0.0000 0.0000
vn 0.0000 0.0000 -1.0000
vn 1.0000 0.0000 0.0000
vn 0.0000 0.0000 1.0000
vn 0.0000 -1.0000 0.0000
vn 0.0000 1.0000 0.0000
s 1
f 17//13 18//13 19//13
f 20//14 21//14 18//14
f 22//15 23//15 21//15
f 24//16 19//16 23//16
f 21//17 19//17 18//17
f 20//18 24//18 22//18
f 17//13 20//13 18//13
f 20//14 22//14 21//14
f 22//15 24//15 23//15
f 24//16 17//16 19//16
f 21//17 23//17 19//17
f 20//18 17//18 24//18
o Cube.002_Cube.000
v 382.054382 250.000092 965.241211
v 382.054504 -749.999878 955.241211
v 382.054504 -749.999878 965.241211
v 382.054382 250.000092 955.241211
v 682.054504 -749.999878 955.241211
v 682.054382 250.000092 955.241211
v 682.054504 -749.999878 965.241211
v 682.054382 250.000092 965.241211
vn -1.0000 -0.0000 0.0000
vn 0.0000 0.0000 -1.0000
vn 1.0000 0.0000 0.0000
vn 0.0000 0.0000 1.0000
vn 0.0000 -1.0000 0.0000
vn 0.0000 1.0000 0.0000
s 1
f 25//19 26//19 27//19
f 28//20 29//20 26//20
f 30//21 31//21 29//21
f 32//22 27//22 31//22
f 29//23 27//23 26//23
f 28//24 32//24 30//24
f 25//19 28//19 26//19
f 28//20 30//20 29//20
f 30//21 32//21 31//21
f 32//22 25//22 27//22
f 29//23 31//23 27//23
f 28//24 25//24 32//24
