# Blender v2.78 (sub 0) OBJ File: 'table.blend'
# www.blender.org
mtllib camera.mtl
o camera_Cube.003
v -75.000000 520.000000 525.000000
v -75.000000 670.000000 525.000000
v -75.000000 520.000000 375.000000
v -75.000000 670.000000 375.000000
v 75.000000 520.000000 525.000000
v 75.000000 670.000000 525.000000
v 75.000000 520.000000 375.000000
v 75.000000 670.000000 375.000000
vn -1.0000 0.0000 0.0000
vn 0.0000 0.0000 -1.0000
vn 1.0000 0.0000 0.0000
vn 0.0000 0.0000 1.0000
vn 0.0000 -1.0000 0.0000
vn 0.0000 1.0000 0.0000
usemtl None
s off
f 1//1 2//1 4//1 3//1
f 3//2 4//2 8//2 7//2
f 7//3 8//3 6//3 5//3
f 5//4 6//4 2//4 1//4
f 3//5 7//5 5//5 1//5
f 8//6 4//6 2//6 6//6
o profile
v -14.136499 579.070496 486.493713
v -14.584956 575.267822 486.499207
v -14.316603 579.317261 -113.656456
v -14.740799 575.210205 -113.724426
v -20.020601 579.977722 486.050964
v -19.936565 579.983704 -113.156509
v -13.262182 587.171997 -113.279633
v -13.024965 587.195068 486.289795
v -18.199982 583.140015 -113.520813
v -18.199982 583.139893 486.479187
v -6.721334 587.164307 486.241272
v -6.956722 587.193848 -113.327530
v 0.020302 579.977539 -113.092926
v -0.064381 579.982605 486.116089
v -2.354588 583.811707 -113.425583
v -1.800016 583.139893 486.479187
v -5.683395 579.317139 486.614868
v -5.863503 579.070557 -113.535370
v -5.293884 575.223145 486.664246
v -5.275478 575.222778 -113.710632
v 10.000000 575.000000 -113.520813
v 4.992535 585.030457 -113.222214
v -2.074863 591.617065 -113.398346
v 0.650301 587.889893 -113.430389
v -17.803814 591.984375 -113.333626
v -25.002201 584.976990 -113.092621
v -30.000000 575.000000 -113.520813
v -29.732050 590.415039 -113.540863
v -25.929371 590.863464 -113.535370
v -2.041454 598.548218 -113.363548
v -17.820595 598.246216 -113.276718
v -6.597038 602.928589 -113.394539
v -13.564150 602.963623 -113.359100
v -21.859982 603.199951 -113.520805
v -19.949150 609.966858 -113.235580
v -25.033401 604.928467 -113.175079
v -30.000000 615.000000 -113.520805
v -29.787653 599.722839 -113.695137
v -25.681129 599.318237 -113.657616
v -14.825876 614.860229 -113.693153
v -14.369679 610.659363 -113.578842
v 1.899982 603.199951 -113.520805
v -0.034422 609.989380 -113.217728
v 5.093269 604.873962 -113.062080
v 10.000000 615.000000 -113.520805
v -5.151829 614.872925 -113.697197
v -5.704004 610.682800 -113.682671
v 9.875404 599.819641 -113.722519
v 5.696117 599.339233 -113.606346
v 9.845345 590.259338 -113.737305
v 5.675308 590.697876 -113.687958
v -30.000000 574.999878 486.479187
v -5.626982 610.658142 486.535828
v -5.185776 614.871582 486.685120
v 0.040119 609.938599 486.110229
v -6.423382 602.964050 486.316040
v -13.400322 602.928833 486.352905
v -20.004564 609.913635 486.147278
v -17.114553 605.662048 486.395020
v -14.297892 610.679016 486.642822
v -14.719411 614.840942 486.705200
v 10.000000 614.999878 486.479187
v -25.929413 599.136414 486.493713
v -29.787148 599.740417 486.658264
v -25.009892 604.990784 486.081482
v -17.802355 598.010925 486.293518
v -21.185186 602.646362 486.380188
v -17.824245 591.745422 486.236511
v -25.019005 585.051086 486.101135
v -21.859982 586.799927 486.479187
v -25.668631 590.671692 486.621460
v -29.800636 590.243713 486.671875
v -30.000000 614.999878 486.479187
v 5.659119 590.628906 486.536865
v 9.863441 590.156128 486.644409
v 4.944202 584.950745 486.117676
v -2.037676 591.445251 486.320312
v 1.242367 587.341553 486.399414
v -2.075006 598.385803 486.356445
v 4.963463 605.008728 486.163696
v 0.654297 602.109619 486.392639
v 5.746750 599.215454 486.593506
v 9.877811 599.866150 486.643311
v 10.000000 574.999878 486.479187
vn 0.9931 -0.1171 -0.0003
vn 0.9947 -0.1027 -0.0002
vn 0.1524 0.9883 0.0000
vn 0.1178 0.9930 0.0004
vn 0.6325 -0.7746 -0.0002
vn 0.6168 -0.7871 -0.0000
vn 0.8666 -0.4990 0.0001
vn 0.8761 -0.4820 -0.0000
vn -0.0049 -1.0000 -0.0000
vn 0.0010 -1.0000 0.0000
vn -0.0024 -1.0000 -0.0000
vn 0.0035 -1.0000 0.0000
vn -0.8501 -0.5266 -0.0001
vn -0.8763 -0.4818 0.0003
vn -0.6330 -0.7741 0.0002
vn -0.5922 -0.8058 -0.0004
vn -0.1176 0.9931 -0.0004
vn -0.1523 0.9883 -0.0000
vn -0.9955 -0.0947 -0.0000
vn -0.9885 -0.1511 0.0004
vn 0.0664 0.0555 -0.9963
vn 0.0140 0.1135 -0.9934
vn -0.0373 0.0111 -0.9992
vn -0.0126 0.0017 -0.9999
vn -0.0077 -0.0091 -0.9999
vn -0.0142 0.0072 -0.9999
vn -0.0144 0.0094 -0.9999
vn 0.0317 -0.0246 -0.9992
vn 0.0380 -0.0630 -0.9973
vn -0.0094 -0.0127 -0.9999
vn -0.0067 -0.0176 -0.9998
vn -0.0118 -0.0223 -0.9997
vn -0.0350 0.1023 -0.9941
vn -0.0815 -0.0699 -0.9942
vn 0.0199 0.0329 -0.9993
vn -0.0147 0.1024 -0.9946
vn -0.0856 0.0253 -0.9960
vn 0.0911 -0.0029 -0.9958
vn 0.0101 -0.0734 -0.9973
vn -0.0040 0.0050 -1.0000
vn -0.0046 0.0066 -1.0000
vn -0.0051 0.0076 -1.0000
vn -0.0057 0.0091 -0.9999
vn -0.0080 -0.0154 -0.9998
vn -0.0052 -0.0127 -0.9999
vn -0.0101 -0.0180 -0.9998
vn -0.0051 -0.0128 -0.9999
vn 0.0185 -0.0341 -0.9992
vn 0.0205 0.0363 -0.9991
vn -0.0742 0.0629 -0.9953
vn 0.0149 -0.0270 -0.9995
vn 0.0950 0.0127 -0.9954
vn 0.0174 0.0837 -0.9963
vn -0.0121 -0.0806 -0.9967
vn -0.0572 -0.0334 -0.9978
vn -0.0142 -0.0218 -0.9997
vn -0.0161 0.0400 -0.9991
vn 0.1038 0.0738 -0.9919
vn -0.0100 -0.0404 -0.9991
vn 0.0123 -0.0849 -0.9963
vn 0.0800 -0.0140 -0.9967
vn -0.1221 0.0142 -0.9924
vn -0.0384 0.0936 -0.9949
vn -0.0895 -0.0150 -0.9959
vn -0.0202 -0.0795 -0.9966
vn 0.0138 -0.9999 0.0001
vn 0.0148 -0.9999 0.0001
vn 0.0163 -0.9999 -0.0000
vn 0.0174 -0.9998 -0.0000
vn -0.9946 0.1041 0.0001
vn -0.9914 0.1307 -0.0001
vn -0.1260 -0.9920 -0.0001
vn -0.1228 -0.9924 -0.0001
vn -0.1246 -0.9922 -0.0002
vn -0.1214 -0.9926 -0.0000
vn -0.7325 0.6808 0.0002
vn -0.7327 0.6805 0.0002
vn -0.7332 0.6800 0.0002
vn -0.7335 0.6797 0.0001
vn -0.0050 1.0000 0.0001
vn 0.0021 1.0000 -0.0001
vn -0.0021 1.0000 0.0001
vn 0.0050 1.0000 -0.0001
vn 0.8270 0.5622 0.0001
vn 0.5927 0.8054 -0.0001
vn 0.7390 0.6737 0.0013
vn 0.1329 -0.9911 0.0000
vn 0.1260 -0.9920 -0.0001
vn 0.1300 -0.9915 -0.0000
vn 0.1232 -0.9924 -0.0001
vn 0.9949 0.1008 -0.0002
vn 0.9944 0.1059 -0.0001
vn 0.9947 0.1029 -0.0001
vn 0.9942 0.1080 -0.0001
vn -0.0084 1.0000 0.0000
vn -0.1547 -0.9880 -0.0004
vn -0.0981 -0.9952 0.0000
vn 0.9879 -0.1552 -0.0000
vn 0.9934 -0.1147 0.0004
vn -0.7750 -0.6320 -0.0002
vn -0.8078 -0.5895 0.0004
vn -0.5226 -0.8526 0.0001
vn -0.4784 -0.8782 -0.0003
vn -1.0000 0.0035 -0.0000
vn -1.0000 -0.0009 0.0000
vn -1.0000 0.0017 -0.0000
vn -1.0000 -0.0027 0.0000
vn -0.4843 0.8749 -0.0001
vn -0.7748 0.6323 0.0002
vn -0.6975 0.7166 0.0015
vn 0.9934 0.1149 -0.0004
vn 0.9878 0.1556 0.0000
vn -0.1030 0.9947 0.0003
vn -0.1171 0.9931 0.0004
vn -0.9999 -0.0139 0.0000
vn 0.1117 0.9937 0.0001
vn 0.1067 0.9943 0.0001
vn 0.1096 0.9940 0.0001
vn 0.1046 0.9945 0.0002
vn -0.9922 0.1249 -0.0001
vn -0.9926 0.1212 -0.0001
vn -0.9924 0.1233 -0.0002
vn -0.9928 0.1196 -0.0000
vn 0.8072 0.5902 0.0001
vn 0.7811 0.6244 -0.0002
vn 0.5425 0.8400 0.0002
vn 0.5448 0.8386 0.0001
vn 0.5478 0.8366 0.0001
vn 0.5500 0.8352 0.0002
vn 1.0000 0.0054 0.0001
vn 1.0000 -0.0018 -0.0001
vn 1.0000 0.0024 0.0001
vn 1.0000 -0.0048 -0.0001
vn 0.4643 -0.8857 0.0003
vn 0.5582 -0.8297 -0.0003
vn 0.8066 -0.5912 -0.0001
vn 0.7630 -0.6464 0.0004
vn -0.9910 -0.1340 0.0001
vn -0.9941 -0.1083 -0.0002
vn 0.1556 -0.9878 0.0001
vn 0.1142 -0.9935 -0.0002
vn 0.9999 0.0101 -0.0000
vn 1.0000 0.0097 -0.0000
vn 1.0000 0.0093 0.0000
vn 1.0000 0.0090 0.0000
vn 0.0135 0.0998 0.9949
vn -0.0942 -0.0117 0.9955
vn -0.0333 -0.0694 0.9970
vn 0.0732 -0.0741 0.9946
vn 0.0601 -0.0246 0.9979
vn -0.0206 0.0339 0.9992
vn -0.0199 0.0033 0.9998
vn 0.0076 -0.0267 0.9996
vn -0.0052 0.0062 1.0000
vn -0.0061 0.0004 1.0000
vn -0.0053 0.0012 1.0000
vn -0.0034 -0.0078 1.0000
vn -0.0038 -0.0073 1.0000
vn 0.0026 -0.0121 0.9999
vn 0.0052 0.0138 0.9999
vn -0.0110 -0.0016 0.9999
vn -0.0065 0.0355 0.9993
vn 0.0274 0.0382 0.9989
vn -0.0282 -0.0173 0.9995
vn -0.0852 0.0115 0.9963
vn -0.0232 0.0708 0.9972
vn 0.0143 -0.1007 0.9948
vn 0.0695 -0.0426 0.9967
vn 0.0039 -0.0117 0.9999
vn 0.0039 -0.0101 0.9999
vn -0.0443 0.0549 0.9975
vn -0.0422 0.0295 0.9987
vn 0.0174 -0.0310 0.9994
vn -0.0157 -0.0958 0.9953
vn -0.0834 -0.0234 0.9962
vn 0.1056 0.0131 0.9943
vn 0.0522 0.0620 0.9967
vn 0.0204 0.0233 0.9995
vn 0.0200 0.0327 0.9993
vn 0.0202 0.0267 0.9994
vn 0.0205 0.0205 0.9996
vn -0.0777 -0.0808 0.9937
vn -0.0766 -0.0766 0.9941
vn -0.0790 -0.0854 0.9932
vn -0.0799 -0.0885 0.9929
vn 0.0321 0.0217 0.9993
vn 0.1036 -0.0139 0.9945
vn 0.0214 -0.0897 0.9957
vn -0.0029 0.0914 0.9958
vn -0.0735 0.0101 0.9972
vn -0.0242 0.0240 0.9994
vn 0.0860 0.0202 0.9961
vn -0.0146 -0.9999 0.0000
vn -0.9999 0.0131 -0.0001
vn -0.9999 0.0143 -0.0001
vn -0.9999 0.0161 0.0000
vn -0.9998 0.0174 0.0000
vn 0.0104 0.9999 0.0000
vn 0.0100 0.9999 0.0000
vn 0.0097 1.0000 0.0000
vn 0.0092 1.0000 0.0000
vn 1.0000 -0.0081 -0.0000
vn 1.0000 -0.0082 -0.0000
usemtl (null)
s 1
f 9//7 10//7 11//7
f 11//8 10//8 12//8
f 13//9 9//9 14//9
f 14//10 9//10 11//10
f 15//11 16//11 17//11
f 17//12 16//12 18//12
f 13//13 14//13 18//13
f 18//14 14//14 17//14
f 19//15 16//16 20//17
f 20//17 16//16 15//18
f 21//19 22//19 23//19
f 23//20 22//20 24//20
f 19//21 20//21 24//21
f 24//22 20//22 23//22
f 25//23 22//23 26//23
f 26//24 22//24 21//24
f 27//25 25//25 28//25
f 28//26 25//26 26//26
f 21//27 28//27 26//27
f 28//28 21//28 29//28
f 29//29 21//29 30//29
f 20//30 31//31 32//32
f 20//30 32//32 23//33
f 23//34 32//34 30//34
f 23//35 30//35 21//35
f 31//31 20//30 15//36
f 31//31 15//36 33//37
f 33//37 15//36 34//38
f 34//39 15//39 17//39
f 34//40 17//40 14//40
f 34//41 14//41 35//41
f 35//42 14//42 12//42
f 14//43 11//43 12//43
f 36//44 34//44 35//44
f 36//45 37//45 34//45
f 31//46 33//47 38//48
f 38//48 33//47 39//49
f 38//50 39//51 40//52
f 40//52 39//51 41//53
f 39//54 42//54 41//54
f 41//55 42//55 43//55
f 42//56 44//56 43//56
f 43//57 44//57 45//57
f 45//58 44//58 46//58
f 46//59 44//59 47//59
f 48//60 43//60 45//60
f 43//61 48//61 49//61
f 38//50 40//52 50//62
f 40//63 51//63 50//63
f 50//64 51//64 52//64
f 52//65 51//65 53//65
f 53//66 51//66 54//66
f 51//67 55//67 54//67
f 56//68 52//68 53//68
f 56//69 57//69 52//69
f 29//70 30//70 58//70
f 58//71 30//71 59//71
f 12//72 10//73 35//74
f 35//74 10//73 60//75
f 61//76 62//76 55//76
f 55//77 62//77 54//77
f 63//78 61//79 51//80
f 51//80 61//79 55//81
f 40//82 64//83 51//84
f 51//84 64//83 63//85
f 65//86 64//87 41//88
f 41//88 64//87 40//89
f 43//90 66//90 67//90
f 65//91 41//91 67//91
f 67//92 41//92 43//92
f 68//93 66//94 49//95
f 49//95 66//94 43//96
f 69//97 68//98 48//99
f 48//99 68//98 49//100
f 54//101 62//101 53//101
f 53//101 62//101 70//101
f 71//102 72//102 47//102
f 47//103 72//103 46//103
f 73//104 71//104 44//104
f 44//105 71//105 47//105
f 39//106 74//106 42//106
f 42//107 74//107 75//107
f 73//108 44//108 75//108
f 75//109 44//109 42//109
f 76//110 74//111 33//112
f 33//112 74//111 39//113
f 34//114 77//114 78//114
f 76//115 33//115 78//115
f 78//116 33//116 34//116
f 79//117 77//117 37//117
f 37//118 77//118 34//118
f 80//119 79//119 36//119
f 36//120 79//120 37//120
f 46//121 72//121 45//121
f 45//121 72//121 81//121
f 82//122 83//123 59//124
f 59//124 83//123 58//125
f 84//126 82//127 30//128
f 30//128 82//127 59//129
f 31//130 85//130 32//130
f 32//131 85//131 86//131
f 84//132 30//133 86//134
f 86//134 30//133 32//135
f 87//136 85//137 38//138
f 38//138 85//137 31//139
f 52//140 88//140 50//140
f 50//141 88//141 89//141
f 87//142 38//142 89//142
f 89//143 38//143 50//143
f 90//144 88//144 57//144
f 57//145 88//145 52//145
f 91//146 90//146 56//146
f 56//147 90//147 57//147
f 58//148 83//149 29//150
f 29//150 83//149 92//151
f 92//152 22//152 27//152
f 83//153 84//153 92//153
f 83//154 82//154 84//154
f 22//155 84//155 24//155
f 24//156 84//156 86//156
f 24//157 86//157 19//157
f 19//158 86//158 85//158
f 19//159 85//159 16//159
f 16//160 85//161 76//162
f 76//162 85//161 74//163
f 74//163 85//161 87//164
f 74//163 87//164 65//165
f 65//166 87//166 64//166
f 87//167 89//167 64//167
f 64//168 89//168 63//168
f 89//169 88//169 63//169
f 63//170 88//170 70//170
f 70//171 88//171 91//171
f 91//172 88//172 90//172
f 62//173 63//173 70//173
f 63//174 62//174 61//174
f 74//163 65//165 75//175
f 65//165 67//176 75//175
f 75//177 67//177 73//177
f 67//178 66//178 73//178
f 73//179 66//179 81//179
f 81//180 66//180 69//180
f 66//181 68//181 69//181
f 72//182 73//182 81//182
f 72//183 71//183 73//183
f 16//184 76//185 78//186
f 16//184 78//186 18//187
f 18//188 78//189 77//190
f 18//188 77//190 13//191
f 77//192 60//192 13//192
f 60//193 77//193 80//193
f 77//194 79//194 80//194
f 10//195 13//195 60//195
f 10//196 9//196 13//196
f 84//197 22//197 92//197
f 22//198 25//198 27//198
f 27//199 28//199 92//199
f 92//199 28//199 29//199
f 80//200 36//201 60//202
f 60//202 36//201 35//203
f 69//204 48//205 81//206
f 81//206 48//205 45//207
f 91//208 56//209 70//208
f 70//208 56//209 53//209
