# Blender v2.78 (sub 0) OBJ File: 'table.blend'
# www.blender.org
mtllib coffee.mtl
o coffeeMachine_Cube.002
v 306.563873 -839.037476 335.935608
v 67.044159 -583.831055 335.935608
v 306.563873 -839.037476 -14.064377
v 67.044159 -583.831055 -14.064377
v 671.144409 -496.866455 335.935608
v 431.624725 -241.660034 335.935608
v 671.144409 -496.866455 -14.064377
v 431.624725 -241.660034 -14.064377
vn -0.7292 -0.6843 0.0000
vn 0.0000 0.0000 -1.0000
vn 0.7292 0.6843 0.0000
vn 0.0000 0.0000 1.0000
vn 0.6843 -0.7292 0.0000
vn -0.6843 0.7292 0.0000
usemtl None
s off
f 1//1 2//1 4//1 3//1
f 3//2 4//2 8//2 7//2
f 7//3 8//3 6//3 5//3
f 5//4 6//4 2//4 1//4
f 3//5 7//5 5//5 1//5
f 8//6 4//6 2//6 6//6
